# xmcd
#
# Track frame offsets:
#	150
#	20919
#	41228
#	62653
#	83898
#	108307
#	125237
#	152718
#	195350
#	223753
#
# Disc length: 3286 seconds
#
# Revision: 3278245771
# Processed by: cddbd v1.5.2PL0 Copyright (c) Steve Scherf et al.
# Submitted via: EZCDAudioConverter 8.0.2.1
#
DISCID=900cd40a
DTITLE=Dương Ngọc Thái - Một Thoáng Quê Hương 3 [CD2)
DYEAR=2011
DGENRE=Classic Rock
TTITLE0=Dương Ngọc Thái - Thấy trăng quên đèn
TTITLE1=Dương Ngọc Thái - Xa em gái quê
TTITLE2=Dương Ngọc Thái - Duyên tùy duyên
TTITLE3=Dương Ngọc Thái - Nghèo còn mắc cái eo
TTITLE4=Dương Ngọc Thái - Chuyến đò định mệnh
TTITLE5=Dương Ngọc Thái, Nhật Kim Anh - LK Nếu có yêu tôi, Có yêu không
TTITLE6=Dương Ngọc Thái - Ai giàu ba họ ai khó ba đời
TTITLE7=Dương Ngọc Thái - Tân cổ. Điệu buồn phương Nam
TTITLE8=Dương Ngọc Thái - Đò qua bến sông
TTITLE9=Dương Ngọc Thái - Lâu đài tình ái
EXTD=
EXTT0=
EXTT1=
EXTT2=
EXTT3=
EXTT4=
EXTT5=
EXTT6=
EXTT7=
EXTT8=
EXTT9=
PLAYORDER=
